{
  "asset": {
    "generator": "Khronos glTF Blender I/O v1.8.19",
    "version": "2.0"
  },
  "scene": 0,
  "scenes": [
    {
      "name": "Scene",
      "nodes": [0, 1]
    }
  ],
  "nodes": [
    {
      "mesh": 0,
      "name": "Cube"
    },
    {
      "mesh": 1,
      "name": "Cube.001",
      "translation": [
        -0.12420028448104858, 1.346170425415039, -0.03656482696533203
      ]
    }
  ],
  "materials": [
    {
      "doubleSided": true,
      "name": "Material.002",
      "pbrMetallicRoughness": {
        "baseColorFactor": [0, 0.15319287776947021, 0.0688319206237793, 1],
        "metallicFactor": 0,
        "roughnessFactor": 0.5
      }
    }
  ],
  "meshes": [
    {
      "name": "Cube",
      "primitives": [
        {
          "attributes": {
            "POSITION": 0,
            "NORMAL": 1,
            "TEXCOORD_0": 2
          },
          "indices": 3,
          "material": 0
        }
      ]
    },
    {
      "name": "Cube.001",
      "primitives": [
        {
          "attributes": {
            "POSITION": 4,
            "NORMAL": 5,
            "TEXCOORD_0": 6
          },
          "indices": 7,
          "material": 0
        }
      ]
    }
  ],
  "accessors": [
    {
      "bufferView": 0,
      "componentType": 5126,
      "count": 296,
      "max": [2.608995199203491, 1.3415396213531494, 4.0625762939453125],
      "min": [-2.608995199203491, -1.1055269241333008, -4.0625762939453125],
      "type": "VEC3"
    },
    {
      "bufferView": 1,
      "componentType": 5126,
      "count": 296,
      "type": "VEC3"
    },
    {
      "bufferView": 2,
      "componentType": 5126,
      "count": 296,
      "type": "VEC2"
    },
    {
      "bufferView": 3,
      "componentType": 5123,
      "count": 516,
      "type": "SCALAR"
    },
    {
      "bufferView": 4,
      "componentType": 5126,
      "count": 156,
      "max": [1.0632054805755615, 1.3245636224746704, 2.3091163635253906],
      "min": [-1.0624253749847412, 0.002475261688232422, -7.407011985778809],
      "type": "VEC3"
    },
    {
      "bufferView": 5,
      "componentType": 5126,
      "count": 156,
      "type": "VEC3"
    },
    {
      "bufferView": 6,
      "componentType": 5126,
      "count": 156,
      "type": "VEC2"
    },
    {
      "bufferView": 7,
      "componentType": 5123,
      "count": 252,
      "type": "SCALAR"
    }
  ],
  "bufferViews": [
    {
      "buffer": 0,
      "byteLength": 3552,
      "byteOffset": 0
    },
    {
      "buffer": 0,
      "byteLength": 3552,
      "byteOffset": 3552
    },
    {
      "buffer": 0,
      "byteLength": 2368,
      "byteOffset": 7104
    },
    {
      "buffer": 0,
      "byteLength": 1032,
      "byteOffset": 9472
    },
    {
      "buffer": 0,
      "byteLength": 1872,
      "byteOffset": 10504
    },
    {
      "buffer": 0,
      "byteLength": 1872,
      "byteOffset": 12376
    },
    {
      "buffer": 0,
      "byteLength": 1248,
      "byteOffset": 14248
    },
    {
      "buffer": 0,
      "byteLength": 504,
      "byteOffset": 15496
    }
  ],
  "buffers": [
    {
      "byteLength": 16000,
      "uri": "data:application/octet-stream;base64,"
    }
  ]
}
