{
    "asset" : {
        "generator" : "Khronos glTF Blender I/O v1.8.19",
        "version" : "2.0"
    },
    "scene" : 0,
    "scenes" : [
        {
            "name" : "Scene",
            "nodes" : [
                0,
                1,
                2,
                3,
                4,
                5,
                6
            ]
        }
    ],
    "nodes" : [
        {
            "mesh" : 0,
            "name" : "Cube",
            "scale" : [
                1,
                -0.37067416310310364,
                2.4005000591278076
            ],
            "translation" : [
                0,
                0.14764392375946045,
                0
            ]
        },
        {
            "mesh" : 1,
            "name" : "Cube.001",
            "scale" : [
                2.725344181060791,
                0.06834879517555237,
                -0.5259100198745728
            ],
            "translation" : [
                0,
                -0.13560031354427338,
                0.6440368890762329
            ]
        },
        {
            "mesh" : 2,
            "name" : "Cube.002",
            "scale" : [
                0.8479354977607727,
                0.054046571254730225,
                0.28057312965393066
            ],
            "translation" : [
                0,
                0.3847699761390686,
                -2.1109402179718018
            ]
        },
        {
            "mesh" : 3,
            "name" : "Cube.003",
            "scale" : [
                1,
                -0.3526800870895386,
                0.43155786395072937
            ],
            "translation" : [
                0,
                0.5364684462547302,
                -1.9832274913787842
            ]
        },
        {
            "mesh" : 4,
            "name" : "Cone",
            "rotation" : [
                0.7071068286895752,
                0,
                0,
                0.7071068286895752
            ],
            "scale" : [
                0.20868782699108124,
                0.13705113530158997,
                0.20868782699108124
            ],
            "translation" : [
                0.0025630593299865723,
                0.043861985206604004,
                2.258453845977783
            ]
        },
        {
            "mesh" : 5,
            "name" : "Cylinder",
            "rotation" : [
                0.6064164638519287,
                -0.36367443203926086,
                -0.3636744022369385,
                0.6064164638519287
            ],
            "scale" : [
                0.0486195906996727,
                0.03215721994638443,
                0.0486195906996727
            ],
            "translation" : [
                0,
                0.04239516705274582,
                2.3480210304260254
            ]
        },
        {
            "mesh" : 6,
            "name" : "Cube.004",
            "scale" : [
                0.11115115880966187,
                -0.024167504161596298,
                0.25675255060195923
            ],
            "translation" : [
                0,
                -0.05170714110136032,
                1.683279275894165
            ]
        }
    ],
    "materials" : [
        {
            "doubleSided" : true,
            "name" : "Material",
            "pbrMetallicRoughness" : {
                "baseColorTexture" : {
                    "index" : 0
                },
                "metallicFactor" : 0,
                "roughnessFactor" : 0.4000000059604645
            }
        }
    ],
    "meshes" : [
        {
            "name" : "Cube.001",
            "primitives" : [
                {
                    "attributes" : {
                        "POSITION" : 0,
                        "NORMAL" : 1,
                        "TEXCOORD_0" : 2
                    },
                    "indices" : 3,
                    "material" : 0
                }
            ]
        },
        {
            "name" : "Cube.002",
            "primitives" : [
                {
                    "attributes" : {
                        "POSITION" : 4,
                        "NORMAL" : 5,
                        "TEXCOORD_0" : 6
                    },
                    "indices" : 7,
                    "material" : 0
                }
            ]
        },
        {
            "name" : "Cube.003",
            "primitives" : [
                {
                    "attributes" : {
                        "POSITION" : 8,
                        "NORMAL" : 9,
                        "TEXCOORD_0" : 10
                    },
                    "indices" : 11,
                    "material" : 0
                }
            ]
        },
        {
            "name" : "Cube.004",
            "primitives" : [
                {
                    "attributes" : {
                        "POSITION" : 12,
                        "NORMAL" : 13,
                        "TEXCOORD_0" : 14
                    },
                    "indices" : 15,
                    "material" : 0
                }
            ]
        },
        {
            "name" : "Cone.001",
            "primitives" : [
                {
                    "attributes" : {
                        "POSITION" : 16,
                        "NORMAL" : 17,
                        "TEXCOORD_0" : 18
                    },
                    "indices" : 19,
                    "material" : 0
                }
            ]
        },
        {
            "name" : "Cylinder.002",
            "primitives" : [
                {
                    "attributes" : {
                        "POSITION" : 20,
                        "NORMAL" : 21,
                        "TEXCOORD_0" : 22
                    },
                    "indices" : 23,
                    "material" : 0
                }
            ]
        },
        {
            "name" : "Cube.005",
            "primitives" : [
                {
                    "attributes" : {
                        "POSITION" : 24,
                        "NORMAL" : 25,
                        "TEXCOORD_0" : 26
                    },
                    "indices" : 27,
                    "material" : 0
                }
            ]
        }
    ],
    "textures" : [
        {
            "sampler" : 0,
            "source" : 0
        }
    ],
    "images" : [
        {
            "bufferView" : 4,
            "mimeType" : "image/png",
            "name" : "pixil-frame-0"
        }
    ],
    "accessors" : [
        {
            "bufferView" : 0,
            "componentType" : 5126,
            "count" : 392,
            "max" : [
                0.22757047414779663,
                1.002219796180725,
                0.8845208883285522
            ],
            "min" : [
                0,
                -0.9993313550949097,
                -1
            ],
            "type" : "VEC3"
        },
        {
            "bufferView" : 1,
            "componentType" : 5126,
            "count" : 392,
            "type" : "VEC3"
        },
        {
            "bufferView" : 2,
            "componentType" : 5126,
            "count" : 392,
            "type" : "VEC2"
        },
        {
            "bufferView" : 3,
            "componentType" : 5123,
            "count" : 642,
            "type" : "SCALAR"
        },
        {
            "bufferView" : 5,
            "componentType" : 5126,
            "count" : 117,
            "max" : [
                1.2344672679901123,
                3.2465603351593018,
                1.1890119314193726
            ],
            "min" : [
                0.00010561154340393841,
                -1.0140293836593628,
                -1.249906301498413
            ],
            "type" : "VEC3"
        },
        {
            "bufferView" : 6,
            "componentType" : 5126,
            "count" : 117,
            "type" : "VEC3"
        },
        {
            "bufferView" : 7,
            "componentType" : 5126,
            "count" : 117,
            "type" : "VEC2"
        },
        {
            "bufferView" : 8,
            "componentType" : 5123,
            "count" : 183,
            "type" : "SCALAR"
        },
        {
            "bufferView" : 9,
            "componentType" : 5126,
            "count" : 100,
            "max" : [
                1,
                1,
                1
            ],
            "min" : [
                0,
                -1,
                -1.177864909172058
            ],
            "type" : "VEC3"
        },
        {
            "bufferView" : 10,
            "componentType" : 5126,
            "count" : 100,
            "type" : "VEC3"
        },
        {
            "bufferView" : 11,
            "componentType" : 5126,
            "count" : 100,
            "type" : "VEC2"
        },
        {
            "bufferView" : 12,
            "componentType" : 5123,
            "count" : 162,
            "type" : "SCALAR"
        },
        {
            "bufferView" : 13,
            "componentType" : 5126,
            "count" : 96,
            "max" : [
                0.032531559467315674,
                1.1108876466751099,
                1
            ],
            "min" : [
                -0.03614151477813721,
                -0.9744104743003845,
                -1
            ],
            "type" : "VEC3"
        },
        {
            "bufferView" : 14,
            "componentType" : 5126,
            "count" : 96,
            "type" : "VEC3"
        },
        {
            "bufferView" : 15,
            "componentType" : 5126,
            "count" : 96,
            "type" : "VEC2"
        },
        {
            "bufferView" : 16,
            "componentType" : 5123,
            "count" : 144,
            "type" : "SCALAR"
        },
        {
            "bufferView" : 17,
            "componentType" : 5126,
            "count" : 192,
            "max" : [
                1,
                1,
                1
            ],
            "min" : [
                -1,
                -1,
                -1
            ],
            "type" : "VEC3"
        },
        {
            "bufferView" : 18,
            "componentType" : 5126,
            "count" : 192,
            "type" : "VEC3"
        },
        {
            "bufferView" : 19,
            "componentType" : 5126,
            "count" : 192,
            "type" : "VEC2"
        },
        {
            "bufferView" : 20,
            "componentType" : 5123,
            "count" : 372,
            "type" : "SCALAR"
        },
        {
            "bufferView" : 21,
            "componentType" : 5126,
            "count" : 888,
            "max" : [
                13.040817260742188,
                1,
                14.942670822143555
            ],
            "min" : [
                -13.040820121765137,
                -1,
                -7.744776248931885
            ],
            "type" : "VEC3"
        },
        {
            "bufferView" : 22,
            "componentType" : 5126,
            "count" : 888,
            "type" : "VEC3"
        },
        {
            "bufferView" : 23,
            "componentType" : 5126,
            "count" : 888,
            "type" : "VEC2"
        },
        {
            "bufferView" : 24,
            "componentType" : 5123,
            "count" : 1356,
            "type" : "SCALAR"
        },
        {
            "bufferView" : 25,
            "componentType" : 5126,
            "count" : 488,
            "max" : [
                2.2315361499786377,
                1.7053412199020386,
                1.1198207139968872
            ],
            "min" : [
                1.2969379425048828,
                -1.0736333131790161,
                -0.9129356741905212
            ],
            "type" : "VEC3"
        },
        {
            "bufferView" : 26,
            "componentType" : 5126,
            "count" : 488,
            "type" : "VEC3"
        },
        {
            "bufferView" : 27,
            "componentType" : 5126,
            "count" : 488,
            "type" : "VEC2"
        },
        {
            "bufferView" : 28,
            "componentType" : 5123,
            "count" : 732,
            "type" : "SCALAR"
        }
    ],
    "bufferViews" : [
        {
            "buffer" : 0,
            "byteLength" : 4704,
            "byteOffset" : 0
        },
        {
            "buffer" : 0,
            "byteLength" : 4704,
            "byteOffset" : 4704
        },
        {
            "buffer" : 0,
            "byteLength" : 3136,
            "byteOffset" : 9408
        },
        {
            "buffer" : 0,
            "byteLength" : 1284,
            "byteOffset" : 12544
        },
        {
            "buffer" : 0,
            "byteLength" : 119,
            "byteOffset" : 13828
        },
        {
            "buffer" : 0,
            "byteLength" : 1404,
            "byteOffset" : 13948
        },
        {
            "buffer" : 0,
            "byteLength" : 1404,
            "byteOffset" : 15352
        },
        {
            "buffer" : 0,
            "byteLength" : 936,
            "byteOffset" : 16756
        },
        {
            "buffer" : 0,
            "byteLength" : 366,
            "byteOffset" : 17692
        },
        {
            "buffer" : 0,
            "byteLength" : 1200,
            "byteOffset" : 18060
        },
        {
            "buffer" : 0,
            "byteLength" : 1200,
            "byteOffset" : 19260
        },
        {
            "buffer" : 0,
            "byteLength" : 800,
            "byteOffset" : 20460
        },
        {
            "buffer" : 0,
            "byteLength" : 324,
            "byteOffset" : 21260
        },
        {
            "buffer" : 0,
            "byteLength" : 1152,
            "byteOffset" : 21584
        },
        {
            "buffer" : 0,
            "byteLength" : 1152,
            "byteOffset" : 22736
        },
        {
            "buffer" : 0,
            "byteLength" : 768,
            "byteOffset" : 23888
        },
        {
            "buffer" : 0,
            "byteLength" : 288,
            "byteOffset" : 24656
        },
        {
            "buffer" : 0,
            "byteLength" : 2304,
            "byteOffset" : 24944
        },
        {
            "buffer" : 0,
            "byteLength" : 2304,
            "byteOffset" : 27248
        },
        {
            "buffer" : 0,
            "byteLength" : 1536,
            "byteOffset" : 29552
        },
        {
            "buffer" : 0,
            "byteLength" : 744,
            "byteOffset" : 31088
        },
        {
            "buffer" : 0,
            "byteLength" : 10656,
            "byteOffset" : 31832
        },
        {
            "buffer" : 0,
            "byteLength" : 10656,
            "byteOffset" : 42488
        },
        {
            "buffer" : 0,
            "byteLength" : 7104,
            "byteOffset" : 53144
        },
        {
            "buffer" : 0,
            "byteLength" : 2712,
            "byteOffset" : 60248
        },
        {
            "buffer" : 0,
            "byteLength" : 5856,
            "byteOffset" : 62960
        },
        {
            "buffer" : 0,
            "byteLength" : 5856,
            "byteOffset" : 68816
        },
        {
            "buffer" : 0,
            "byteLength" : 3904,
            "byteOffset" : 74672
        },
        {
            "buffer" : 0,
            "byteLength" : 1464,
            "byteOffset" : 78576
        }
    ],
    "samplers" : [
        {
            "magFilter" : 9728,
            "minFilter" : 9984
        }
    ],
    "buffers" : [
        {
            "byteLength" : 80040,
            "uri" : "data:application/octet-stream;base64,"
        }
    ]
}
